<?xml version="1.0" ?><svg height="100px" fill="#003045" id="Lock" style="enable-background:new 0 0 100 100;" version="1.1" viewBox="0 0 100 100" width="100px" xml:space="preserve" xmlns="http://www.w3.org/2000/svg" xmlns:xlink="http://www.w3.org/1999/xlink"><g><path d="M85,41.75c2.757,0,5,2.243,5,5V89c0,2.757-2.243,5-5,5H15.018c-2.757,0-5-2.243-5-5V46.75c0-2.757,2.243-5,5-5H85    M85,38.75H15.018c-4.418,0-8,3.582-8,8V89c0,4.418,3.582,8,8,8H85c4.418,0,8-3.582,8-8V46.75C93,42.332,89.418,38.75,85,38.75   L85,38.75z"/></g><g><path d="M50.009,5.938c9.374,0,17,7.626,17,17v15.807h-34V22.938C33.009,13.565,40.635,5.938,50.009,5.938 M50.009,2.938   L50.009,2.938c-11.046,0-20,8.954-20,20v18.807h40V22.938C70.009,11.893,61.054,2.938,50.009,2.938L50.009,2.938z"/></g><g><path d="M50.009,55.574c3.564,0,6.463,2.899,6.463,6.463c0,2.567-1.523,4.891-3.879,5.922l-1.199,0.524v1.308v8.999   c0,0.764-0.621,1.385-1.385,1.385s-1.385-0.621-1.385-1.385v-8.999v-1.308l-1.199-0.524c-2.356-1.03-3.879-3.355-3.879-5.922   C43.546,58.473,46.445,55.574,50.009,55.574 M50.009,53.574c-4.674,0-8.463,3.789-8.463,8.463c0,3.47,2.09,6.448,5.078,7.754v8.999   c0,1.87,1.516,3.385,3.385,3.385s3.385-1.516,3.385-3.385v-8.999c2.988-1.306,5.078-4.285,5.078-7.754   C58.472,57.363,54.683,53.574,50.009,53.574L50.009,53.574z"/></g></svg>