<?xml version="1.0" encoding="utf-8"?>
<!-- Generator: Adobe Illustrator 21.1.0, SVG Export Plug-In . SVG Version: 6.00 Build 0)  -->
<svg version="1.1" id="money_bag" xmlns="http://www.w3.org/2000/svg" xmlns:xlink="http://www.w3.org/1999/xlink" x="0px" y="0px"
	 viewBox="0 0 87.8 89.3" style="enable-background:new 0 0 87.8 89.3;" xml:space="preserve">
<style type="text/css">
	.st0{fill:#003045;}
</style>
<g>
	<path class="st0" d="M50.4,4.8c3.6,0,6.6,3,6.6,6.6v2.9H31v-2.9c0-3.6,3-6.6,6.6-6.6L50.4,4.8 M50.4,0.8H37.6
		C31.8,0.8,27,5.5,27,11.4v6.9h34v-6.9C61,5.5,56.3,0.8,50.4,0.8L50.4,0.8z"/>
</g>
<g>
	<path class="st0" d="M51.4,52.4v1.7c0,3.9-3.1,7-7,7h-0.8c-3.9,0-7-3.1-7-7v-1.7H51.4 M54.4,49.4H33.6v4.7c0,5.5,4.5,10,10,10h0.8
		c5.5,0,10-4.5,10-10L54.4,49.4L54.4,49.4z"/>
</g>
<g>
	<polygon class="st0" points="84,49.4 4,49.4 4,53.4 84,53.4 	"/>
</g>
<g>
	<g>
		<path class="st0" d="M85.1,14.3h-82c-1.1,0-2,0.9-2,2v70.2c0,1.1,0.9,2,2,2v0h82c1.1,0,2-0.9,2-2V16.3
			C87.1,15.2,86.2,14.3,85.1,14.3z M5.1,18.3h78v66.2h-78C5.1,84.5,5.1,18.3,5.1,18.3z"/>
	</g>
</g>
</svg>
