<?xml version="1.0" encoding="utf-8"?>
<!-- Generator: Adobe Illustrator 21.1.0, SVG Export Plug-In . SVG Version: 6.00 Build 0)  -->
<svg version="1.1" id="money_bag" xmlns="http://www.w3.org/2000/svg" xmlns:xlink="http://www.w3.org/1999/xlink" x="0px" y="0px"
	 viewBox="0 0 86 87.6" style="enable-background:new 0 0 86 87.6;" xml:space="preserve">
<style type="text/css">
	.st0{fill:#C63533;}
</style>
<g>
	<path class="st0" d="M49.3,4c3.6,0,6.6,3,6.6,6.6v2.9h-26v-2.9c0-3.6,3-6.6,6.6-6.6L49.3,4 M49.3,0H36.5c-5.9,0-10.6,4.8-10.6,10.6
		v6.9h34v-6.9C59.9,4.8,55.1,0,49.3,0L49.3,0z"/>
</g>
<g>
	<path class="st0" d="M50.3,51.6v1.7c0,3.9-3.1,7-7,7h-0.8c-3.9,0-7-3.1-7-7v-1.7H50.3 M53.3,48.6H32.5v4.7c0,5.5,4.5,10,10,10h0.8
		c5.5,0,10-4.5,10-10L53.3,48.6L53.3,48.6z"/>
</g>
<g>
	<polygon class="st0" points="82.9,48.6 2.9,48.6 2.9,52.6 82.9,52.6 	"/>
</g>
<g>
	<g>
		<path class="st0" d="M84,13.5H2c-1.1,0-2,0.9-2,2v70.2c0,1.1,0.9,2,2,2v0h82c1.1,0,2-0.9,2-2V15.5C86,14.4,85.1,13.5,84,13.5z
			 M4,17.5h78v66.2H4C4,83.8,4,17.5,4,17.5z"/>
	</g>
</g>
</svg>
