<?xml version="1.0" ?><svg height="100px" id="report" style="enable-background:new 0 0 100 100;" version="1.1" viewBox="0 0 100 100" width="100px" xml:space="preserve" fill="#C63533" xmlns="http://www.w3.org/2000/svg" xmlns:xlink="http://www.w3.org/1999/xlink"><path d="M17.218,67.402h45.756c0.695,0,1.158-0.463,1.158-1.158s-0.463-1.158-1.158-1.158H17.218c-0.695,0-1.158,0.463-1.158,1.158  S16.522,67.402,17.218,67.402z"/><path d="M17.218,60.915h45.756c0.695,0,1.158-0.463,1.158-1.158s-0.463-1.158-1.158-1.158H17.218c-0.695,0-1.158,0.463-1.158,1.158  S16.522,60.915,17.218,60.915z"/><path d="M17.218,54.428h45.756c0.695,0,1.158-0.463,1.158-1.158s-0.463-1.158-1.158-1.158H17.218c-0.695,0-1.158,0.463-1.158,1.158  S16.522,54.428,17.218,54.428z"/><path d="M17.218,47.941h45.756c0.695,0,1.158-0.463,1.158-1.158s-0.463-1.158-1.158-1.158H17.218c-0.695,0-1.158,0.463-1.158,1.158  S16.522,47.941,17.218,47.941z"/><path d="M17.218,41.454h45.756c0.695,0,1.158-0.463,1.158-1.158s-0.463-1.158-1.158-1.158H17.218c-0.695,0-1.158,0.463-1.158,1.158  S16.522,41.454,17.218,41.454z"/><path d="M17.218,34.967h45.756c0.695,0,1.158-0.463,1.158-1.158c0-0.695-0.463-1.158-1.158-1.158H17.218  c-0.695,0-1.158,0.463-1.158,1.158C16.059,34.504,16.522,34.967,17.218,34.967z"/><path d="M17.218,28.48h45.756c0.695,0,1.158-0.463,1.158-1.158c0-0.695-0.463-1.158-1.158-1.158H17.218  c-0.695,0-1.158,0.463-1.158,1.158C16.059,28.017,16.522,28.48,17.218,28.48z"/><path d="M17.218,73.889h45.756c0.695,0,1.158-0.463,1.158-1.158c0-0.695-0.463-1.158-1.158-1.158H17.218  c-0.695,0-1.158,0.463-1.158,1.158C16.059,73.426,16.522,73.889,17.218,73.889z"/><path d="M5.981,13.244c-0.232,0.232-0.348,0.463-0.348,0.811v57.572c0,8.456,6.95,15.407,15.407,15.407h62.437l0,0  c6.024,0,10.889-4.865,10.889-10.889v-0.116c0-0.116,0-0.116,0-0.232V31.315c0-0.695-0.463-1.158-1.158-1.158H75.021V14.17  c0-0.695-0.463-1.158-1.158-1.158H6.908C6.56,12.896,6.213,13.012,5.981,13.244z M92.05,32.473v43.324v0.116  c0,0.116,0,0.116,0,0.232c0,4.749-3.823,8.572-8.572,8.572l0,0c-4.749,0-8.572-3.823-8.572-8.572V32.473  C74.905,32.473,92.05,32.473,92.05,32.473z M8.066,15.213h64.638v60.931c0,3.475,1.622,6.487,4.17,8.572H21.04  c-7.182,0-13.09-5.908-13.09-13.09V15.213H8.066z"/></svg>